<svg width="769" height="840" viewBox="0 0 769 840" fill="none" xmlns="http://www.w3.org/2000/svg">
<path fill-rule="evenodd" clip-rule="evenodd" d="M412.835 152.367C496.833 174.749 501.392 290.342 550.128 362.324C582.878 410.695 631.339 443.612 647.945 499.617C672.933 583.89 717.758 681.699 665.864 752.645C612.241 825.954 503.655 822.148 412.835 821.042C323.465 819.953 214.093 821.824 165.899 746.553C119.123 673.497 205.261 586.347 207.036 499.617C208.73 416.786 133.561 333.853 175.8 262.582C221.983 184.656 325.307 129.044 412.835 152.367Z" fill="#FFAB91"/>
<path d="M662.646 623.154C660.439 617.892 654.383 615.416 649.167 617.642C644.569 619.605 642.13 624.402 643.067 629.145L615.34 640.981C612.618 636.999 607.508 635.426 602.909 637.389C597.693 639.615 595.238 645.724 597.446 650.987C598.404 653.272 600.059 655.096 602.197 656.142C601.482 658.489 601.598 660.888 602.557 663.173C604.764 668.435 610.819 670.912 616.035 668.685C620.634 666.722 623.073 661.926 622.135 657.183L649.794 645.376C652.516 649.357 657.626 650.931 662.225 648.968C667.441 646.741 669.895 640.632 667.688 635.37C666.73 633.085 665.075 631.261 662.937 630.214C663.72 627.839 663.604 625.439 662.646 623.154ZM659.84 633.25C661.746 633.743 663.296 635.122 664.051 636.923C665.416 640.177 663.911 643.921 660.686 645.298C657.528 646.646 653.875 645.267 652.441 642.042C652.006 641.003 650.863 640.593 649.833 641.032L619.018 654.187C617.988 654.626 617.582 655.779 617.92 656.778C619.187 659.992 617.722 663.638 614.496 665.015C611.271 666.392 607.559 664.874 606.194 661.62C605.439 659.82 605.537 657.737 606.513 656.014C606.848 655.463 606.822 654.821 606.59 654.267C606.357 653.713 605.851 653.277 605.294 653.106C603.388 652.614 601.838 651.234 601.083 649.434C599.718 646.18 601.223 642.435 604.448 641.058C607.605 639.711 611.259 641.09 612.692 644.315C613.128 645.354 614.271 645.764 615.3 645.324L646.254 632.111C647.283 631.672 647.689 630.518 647.352 629.52C646.084 626.306 647.549 622.66 650.775 621.283C654.001 619.906 657.712 621.424 659.077 624.678C659.832 626.478 659.735 628.561 658.758 630.284C658.423 630.835 658.449 631.477 658.681 632.031C658.776 632.643 659.283 633.08 659.84 633.25Z" fill="#FF3D00"/>
<path d="M626.561 628.761C627.59 628.322 628.065 627.139 627.63 626.101L625.568 621.185C625.132 620.146 623.96 619.667 622.931 620.106C621.901 620.546 621.426 621.728 621.862 622.767L623.924 627.683C624.359 628.722 625.531 629.201 626.561 628.761Z" fill="#FF3D00"/>
<path d="M633.926 627.413C634.259 627.434 634.494 627.416 634.768 627.299C635.454 627.006 635.966 626.297 635.98 625.557L636.18 620.247C636.214 619.171 635.338 618.239 634.242 618.135C633.176 618.1 632.252 618.984 632.149 620.09L631.949 625.4C631.914 626.476 632.791 627.408 633.926 627.413Z" fill="#FF3D00"/>
<path d="M617.694 633.281C618.328 633.827 619.09 633.909 619.777 633.616C620.051 633.499 620.297 633.313 620.445 633.086C621.163 632.29 621.11 631.006 620.291 630.213L616.374 626.66C615.585 625.936 614.312 625.989 613.526 626.815C612.808 627.611 612.86 628.895 613.679 629.688L617.694 633.281Z" fill="#FF3D00"/>
<path d="M638.642 657.564C637.612 658.004 637.137 659.186 637.573 660.225L639.635 665.141C640.07 666.18 641.242 666.659 642.272 666.219C643.301 665.78 643.776 664.597 643.341 663.559L641.279 658.643C640.843 657.604 639.671 657.125 638.642 657.564Z" fill="#FF3D00"/>
<path d="M631.276 658.914C630.21 658.879 629.286 659.763 629.183 660.868L628.983 666.179C628.948 667.255 629.825 668.187 630.92 668.29C631.253 668.312 631.488 668.293 631.762 668.176C632.449 667.883 632.961 667.174 632.974 666.434L633.174 661.124C633.288 659.851 632.411 658.919 631.276 658.914Z" fill="#FF3D00"/>
<path d="M647.508 653.046C646.719 652.322 645.446 652.375 644.66 653.201C643.942 653.997 643.995 655.281 644.813 656.074L648.731 659.627C649.364 660.173 650.127 660.255 650.813 659.962C651.088 659.845 651.333 659.658 651.481 659.432C652.199 658.636 652.146 657.352 651.328 656.559L647.508 653.046Z" fill="#FF3D00"/>
<path d="M180.532 128.909C186.322 135.807 196.161 125.525 196.133 118.326C202.675 106.673 189.885 99.1094 182.791 109.935C175.67 113.562 172.293 127.28 180.532 128.909ZM181.622 126.966C173.935 126.166 179.103 114.241 183.895 111.592L184.03 110.899C190.168 101.323 199.659 107.515 193.522 117.091L193.387 117.784C193.684 123.596 186.039 133.593 180.936 126.83L181.622 126.966Z" fill="#FF3D00"/>
<path d="M159.489 116.117C165.278 123.016 175.118 112.734 175.09 105.535C181.631 93.8816 168.841 86.3184 161.613 97.8364C154.492 101.464 151.115 115.181 159.354 116.81L159.489 116.117ZM160.579 114.175C152.892 113.375 158.06 101.45 162.852 98.8006L162.986 98.1079C169.124 88.5321 178.616 94.7241 172.478 104.3L172.344 104.993C172.641 110.805 164.995 120.802 159.892 114.039L160.579 114.175Z" fill="#FF3D00"/>
<path d="M187.63 154.766C193.002 160.144 201.765 155.403 200.364 147.933C204.86 139.471 192.756 132.044 186.888 140.234C180.036 142.476 180.212 152.581 186.943 154.631L187.63 154.766ZM188.72 152.824L188.034 152.688C182.675 150.91 182.782 143.019 187.992 141.891L188.813 141.334C192.905 134.95 202.396 141.142 198.305 147.526L198.17 148.219C199.288 153.475 192.719 157.93 188.586 153.517L188.72 152.824Z" fill="#FF3D00"/>
<path d="M133.992 122.585C139.364 127.962 148.127 123.221 146.726 115.752C151.222 107.29 139.118 99.8622 133.249 108.053C126.397 110.294 126.574 120.399 133.305 122.449L133.992 122.585ZM135.082 120.642L134.395 120.507C129.037 118.728 129.144 110.837 134.354 109.709L135.175 109.152C139.266 102.769 148.758 108.961 144.666 115.344L144.532 116.037C145.65 121.293 139.081 125.749 134.947 121.335L135.082 120.642Z" fill="#FF3D00"/>
<path d="M177.048 150.516C188.084 130.401 154.937 110.182 142.662 129.334C119.091 136.902 130.684 154.298 145.265 163.654C159.98 172.317 181.534 175.139 177.048 150.516ZM174.988 150.109L174.853 150.802C179.056 173.211 159.563 170.796 146.22 162.404C132.878 154.013 120.881 138.694 142.945 131.547L143.766 130.991C155.086 113.089 184.934 131.936 174.988 150.109Z" fill="#FF3D00"/>
<path d="M675.768 242.928C656.735 248.463 637.915 259.451 640.635 268.968L644.618 282.91C647.337 292.427 669.091 291.708 688.124 286.173C707.156 280.638 725.976 269.65 723.256 260.133L719.249 246.107C716.554 236.674 694.801 237.393 675.768 242.928ZM667.067 286.509C656.351 287.274 649.013 285.43 648.035 282.007L645.84 274.326C650.471 276.416 657.652 276.769 665.671 275.974C664.469 278.042 664.203 280.561 664.847 282.815C665.252 284.234 666.048 285.449 667.067 286.509ZM654.472 272.54C660.577 267.871 670.054 263.397 680.729 260.293C691.404 257.189 701.788 255.887 709.419 256.561C703.739 260.835 694.641 265.38 683.138 268.725C671.66 272.153 661.559 273.191 654.472 272.54ZM719.864 261.119C721.39 266.462 708.33 276.59 687.146 282.75C682.594 284.074 678.385 285.026 674.353 285.657C671.609 286.093 668.979 284.416 668.24 281.828C667.81 280.325 668.008 278.821 668.88 277.482C669.67 276.168 671.016 275.234 672.553 274.968C676.396 274.302 680.333 273.338 684.14 272.231C698.456 268.068 712.682 260.766 717.645 253.355L719.864 261.119ZM713.008 253.438C704.7 251.966 692.412 253.188 679.751 256.87C667.09 260.552 656.042 266.115 649.786 271.823C646.602 271.031 644.528 269.735 644.028 267.982C642.501 262.639 655.561 252.511 676.746 246.351C697.93 240.19 714.354 241.834 715.856 247.094C716.357 248.847 715.286 251.058 713.008 253.438Z" fill="#FF3D00"/>
<path d="M674.51 282.446C675.653 282.113 676.312 280.91 675.983 279.757C675.654 278.604 674.46 277.939 673.318 278.271C672.175 278.604 671.516 279.807 671.845 280.96C672.175 282.113 673.368 282.778 674.51 282.446Z" fill="#FF3D00"/>
<path d="M681.168 280.962C682.31 280.63 682.97 279.426 682.64 278.274C682.311 277.121 681.118 276.456 679.975 276.788C678.832 277.12 678.173 278.324 678.503 279.477C678.832 280.629 680.025 281.295 681.168 280.962Z" fill="#FF3D00"/>
<path d="M687.835 279.204C688.978 278.872 689.637 277.668 689.308 276.516C688.978 275.363 687.785 274.698 686.643 275.03C685.5 275.362 684.841 276.566 685.17 277.719C685.499 278.872 686.693 279.537 687.835 279.204Z" fill="#FF3D00"/>
<path d="M694.325 277.136C695.467 276.804 696.127 275.6 695.797 274.447C695.468 273.295 694.275 272.63 693.132 272.962C691.99 273.294 691.33 274.498 691.66 275.651C691.989 276.803 693.182 277.468 694.325 277.136Z" fill="#FF3D00"/>
<path d="M236.915 466.872C244.313 473.817 253.841 477.598 263.898 477.598C264.377 477.598 264.856 477.598 265.335 477.564C287.165 476.782 304.306 458.228 303.53 436.21C303.15 425.534 298.691 415.657 290.93 408.379C283.202 401.101 273.129 397.32 262.527 397.67C240.697 398.453 223.556 417.006 224.332 439.041C224.695 449.717 229.17 459.594 236.915 466.872ZM294.959 456.662C290.105 451.183 287.297 444.221 287.033 436.809C286.769 429.398 289.097 422.236 293.556 416.423C297.651 422.203 299.98 429.081 300.244 436.343C300.491 443.754 298.526 450.75 294.959 456.662ZM262.643 401.001C263.089 400.984 263.518 400.984 263.964 400.984C273.178 400.984 281.914 404.448 288.701 410.811C289.692 411.727 290.6 412.709 291.459 413.725C286.191 420.271 283.433 428.432 283.73 436.909C284.028 445.387 287.347 453.331 293.044 459.477C286.686 468.088 276.646 473.817 265.202 474.233C255.526 474.6 246.262 471.102 239.161 464.44C238.17 463.524 237.262 462.541 236.403 461.526C241.671 454.98 244.429 446.819 244.131 438.342C243.834 429.864 240.515 421.92 234.818 415.774C241.176 407.146 251.199 401.417 262.643 401.001ZM232.902 418.589C237.757 424.068 240.565 431.03 240.829 438.442C241.093 445.853 238.765 453.015 234.306 458.827C230.211 453.048 227.882 446.169 227.618 438.908C227.37 431.496 229.336 424.501 232.902 418.589Z" fill="#FF3D00"/>
<path d="M135.933 412.401C133.342 412.401 131.674 414.382 130.645 415.874C129.664 417.294 128.706 418.821 128.706 420.432C128.706 421.506 128.989 422.282 129.593 422.807C130.574 423.69 131.958 423.523 133.543 423.332C135.069 423.141 136.784 423.141 138.31 423.332C138.961 423.415 139.576 423.487 140.143 423.487C140.96 423.487 141.681 423.332 142.261 422.807C142.852 422.27 143.148 421.494 143.148 420.432C143.148 418.738 142.071 417.175 141.208 415.922C140.084 414.287 138.464 412.401 135.933 412.401ZM140.699 421.029C140.463 421.196 139.339 421.065 138.594 420.969C137.801 420.874 136.902 420.766 135.921 420.766C134.939 420.766 134.052 420.874 133.248 420.969C132.502 421.065 131.391 421.196 131.154 421.041C131.154 421.041 131.059 420.91 131.059 420.444C131.059 419.525 131.84 418.308 132.573 417.246C133.756 415.528 134.75 414.8 135.909 414.8C137.044 414.8 138.038 415.552 139.244 417.306C139.919 418.284 140.758 419.501 140.758 420.444C140.782 420.886 140.699 421.029 140.699 421.029Z" fill="#FF3D00"/>
<path d="M141.563 414.347C142.024 414.561 142.651 414.74 143.301 414.74C143.857 414.74 144.449 414.621 144.969 414.299C145.608 413.917 146.388 413.129 146.483 411.519C146.519 411.005 146.59 410.492 146.672 410.015C146.897 408.535 147.193 406.698 145.62 405.946C144.685 405.504 143.526 405.779 142.331 406.721C141.432 407.437 140.616 408.464 140.143 409.466C139.623 410.564 139.516 411.578 139.8 412.461C140.084 413.273 140.687 413.929 141.563 414.347ZM142.296 410.492C142.876 409.239 144.035 408.297 144.496 408.13C144.52 408.476 144.413 409.168 144.33 409.645C144.248 410.17 144.153 410.779 144.117 411.375C144.094 411.829 143.976 412.127 143.763 412.246C143.467 412.425 142.923 412.366 142.568 412.187C142.284 412.055 142.119 411.888 142.059 411.709C141.965 411.435 142.048 411.005 142.296 410.492Z" fill="#FF3D00"/>
<path d="M125.382 411.519C125.476 413.129 126.257 413.917 126.896 414.299C127.428 414.621 128.007 414.74 128.563 414.74C129.214 414.74 129.841 414.573 130.302 414.347C131.177 413.929 131.781 413.273 132.053 412.461C132.348 411.578 132.23 410.576 131.71 409.466C131.237 408.452 130.42 407.426 129.521 406.721C128.339 405.779 127.168 405.504 126.233 405.946C124.66 406.698 124.956 408.535 125.181 410.015C125.263 410.492 125.346 411.005 125.382 411.519ZM129.569 410.492C129.805 411.005 129.888 411.435 129.805 411.709C129.746 411.9 129.569 412.055 129.297 412.187C128.942 412.354 128.398 412.425 128.102 412.246C127.889 412.127 127.771 411.829 127.747 411.375C127.712 410.767 127.617 410.17 127.534 409.645C127.463 409.18 127.357 408.535 127.369 408.165C127.901 408.356 129.013 409.287 129.569 410.492Z" fill="#FF3D00"/>
<path d="M135.53 411.316C135.625 411.328 135.731 411.328 135.85 411.328C136.772 411.328 137.967 411.006 138.712 410.063C139.173 409.478 139.635 408.464 139.161 406.925C139.02 406.435 138.913 405.922 138.818 405.445C138.523 403.977 138.156 402.152 136.429 402.008C134.324 401.817 132.715 404.932 132.526 407.235C132.289 410.039 133.922 411.185 135.53 411.316ZM134.88 407.45C134.998 406.077 135.755 404.777 136.133 404.467C136.275 404.789 136.406 405.469 136.5 405.934C136.607 406.459 136.725 407.056 136.902 407.629C137.032 408.058 137.021 408.381 136.867 408.571C136.642 408.846 136.098 408.977 135.731 408.941C135.353 408.906 134.761 408.858 134.88 407.45Z" fill="#FF3D00"/>
</svg>
