<svg width="1189" height="1043" viewBox="0 0 1189 1043" fill="none" xmlns="http://www.w3.org/2000/svg">
<g id="left-img">
<path id="Vector" d="M295.899 320.646C359.776 241.671 436.658 174.035 492.372 142.274C548.086 110.514 644.373 91.574 708.818 113.906C773.262 136.238 866.047 267.665 884.162 276.155C902.278 284.645 997.339 378.077 1044.38 422.466C1091.42 466.856 1100.49 604.966 1036.85 693.677C973.222 782.387 849.615 720.15 624.21 862.464C398.805 1004.78 300.856 939.816 316.064 744.404C331.273 548.992 191.727 449.441 295.899 320.646Z" fill="#B3E5FC"/>
<g id="Group">
<path id="Vector_2" d="M905.529 416.423C899.363 413.184 895.454 417.34 887.515 418.652C876.02 420.742 874.648 427.123 879.212 431.069C883.606 434.846 890.197 432.487 895.696 435.351C901.194 438.216 903.112 445.274 908.72 446.814C914.328 448.354 918.698 443.508 913.855 432.694C910.457 425.316 911.538 419.793 905.529 416.423Z" fill="#0277BD"/>
<path id="Vector_3" d="M892.651 404.531C894.022 410.189 891.946 415.299 888.037 415.442C884.129 415.585 879.71 411.21 878.327 405.254C876.956 399.597 879.032 394.486 882.94 394.343C886.849 394.2 891.109 398.705 892.651 404.531Z" fill="#0277BD"/>
<path id="Vector_4" d="M922.329 420.445C916.866 422.489 914.281 427.095 916.38 430.607C918.48 434.12 924.562 435.268 929.854 433.056C935.317 431.012 937.903 426.406 935.803 422.894C933.873 419.549 927.791 418.401 922.329 420.445Z" fill="#0277BD"/>
<path id="Vector_5" d="M910.968 401.743C909.402 407.358 904.813 410.841 900.674 409.323C896.535 407.804 894.338 401.902 895.904 396.287C897.471 390.672 902.059 387.189 906.198 388.708C910.18 390.357 912.364 395.959 910.968 401.743Z" fill="#0277BD"/>
<path id="Vector_6" d="M914.136 403.447C910.567 407.939 910.312 413.706 914.014 416.512C917.547 419.149 923.361 417.741 927.088 413.118C930.657 408.626 930.912 402.859 927.21 400.053C923.678 397.416 917.705 398.955 914.136 403.447Z" fill="#0277BD"/>
</g>
<g id="Group_2">
<path id="Vector_7" d="M348.977 399.912C343.014 403.44 345.512 408.383 343.379 415.315C340.482 425.435 346.336 429.315 352.315 427.379C358.049 425.505 358.537 419.196 363.83 416.04C369.123 412.884 377.096 414.424 381.097 410.602C385.098 406.781 382.104 401.168 369.058 400.334C360.116 399.841 355.003 396.568 348.977 399.912Z" fill="#0277BD"/>
<path id="Vector_8" d="M331.34 405.046C337.658 406.413 341.921 410.304 340.361 413.497C338.802 416.691 332.453 418.323 325.827 416.836C319.509 415.468 315.246 411.578 316.805 408.384C318.365 405.191 324.777 403.741 331.34 405.046Z" fill="#0277BD"/>
<path id="Vector_9" d="M360.366 388.206C360.052 393.473 363.582 397.552 368.049 397.401C372.516 397.25 376.328 392.879 376.397 387.675C376.711 382.408 373.181 378.329 368.715 378.48C364.492 378.568 360.68 382.939 360.366 388.206Z" fill="#0277BD"/>
<path id="Vector_10" d="M336.504 389.157C341.499 392.859 343.021 398.053 339.681 400.707C336.341 403.361 329.416 402.548 324.421 398.846C319.426 395.144 317.904 389.95 321.244 387.296C324.647 384.825 331.264 385.517 336.504 389.157Z" fill="#0277BD"/>
<path id="Vector_11" d="M339.607 387.362C342.594 392.179 348.314 394.897 352.764 393.154C356.971 391.474 358.081 386.202 355.031 381.201C352.044 376.384 346.324 373.666 341.874 375.409C337.667 377.089 336.62 382.544 339.607 387.362Z" fill="#0277BD"/>
</g>
<g id="Group_3">
<path id="Vector_12" d="M617.702 188.851C610.558 189.138 609.837 194.514 604.002 199.469C595.669 206.803 598.436 212.807 604.673 213.889C610.665 214.913 614.731 209.737 621.087 209.461C627.443 209.185 633.376 214.156 639.011 212.719C644.645 211.282 645.329 205.105 634.645 198.413C627.277 193.894 624.794 188.75 617.702 188.851Z" fill="#0277BD"/>
<path id="Vector_13" d="M599.636 185.163C604.253 189.229 605.652 194.512 602.47 196.531C599.288 198.55 592.91 197.038 588.1 192.728C583.482 188.663 582.084 183.379 585.266 181.361C588.447 179.342 594.774 181.039 599.636 185.163Z" fill="#0277BD"/>
<path id="Vector_14" d="M634.22 184.051C630.905 188.415 631.567 193.524 635.477 195.441C639.388 197.358 645.179 195.364 648.249 190.942C651.564 186.578 650.901 181.469 646.991 179.552C643.326 177.692 637.535 179.687 634.22 184.051Z" fill="#0277BD"/>
<path id="Vector_15" d="M613.247 173.931C615.381 179.388 613.679 184.531 609.286 185.272C604.893 186.013 599.436 182.145 597.301 176.687C595.167 171.23 596.869 166.087 601.262 165.346C605.604 164.79 610.867 168.415 613.247 173.931Z" fill="#0277BD"/>
<path id="Vector_16" d="M616.942 173.816C616.712 179.307 620.035 184.255 624.853 184.802C629.425 185.292 633.424 181.288 633.706 175.611C633.935 170.119 630.612 165.172 625.794 164.624C621.222 164.135 617.171 168.324 616.942 173.816Z" fill="#0277BD"/>
</g>
<g id="Group_4">
<g id="Group_5">
<g id="Group_6">
<path id="Vector_17" d="M412.963 534.523C410.909 530.202 405.274 528.169 400.421 529.997C396.142 531.609 393.872 535.547 394.744 539.441L368.943 549.158C366.41 545.889 361.654 544.597 357.375 546.209C352.522 548.037 350.237 553.053 352.291 557.373C353.183 559.249 354.723 560.747 356.713 561.606C356.047 563.532 356.156 565.502 357.047 567.378C359.101 571.698 364.736 573.731 369.59 571.903C373.869 570.292 376.138 566.354 375.266 562.46L401.004 552.767C403.537 556.035 408.292 557.327 412.571 555.716C417.425 553.888 419.709 548.872 417.655 544.552C416.764 542.676 415.223 541.178 413.234 540.319C413.963 538.369 413.855 536.399 412.963 534.523ZM410.352 542.811C412.126 543.216 413.568 544.348 414.27 545.826C415.541 548.498 414.141 551.572 411.139 552.703C408.201 553.809 404.801 552.677 403.467 550.029C403.062 549.176 401.998 548.84 401.04 549.201L372.365 560C371.407 560.361 371.029 561.308 371.343 562.128C372.522 564.767 371.159 567.76 368.158 568.89C365.156 570.021 361.702 568.775 360.432 566.103C359.73 564.625 359.82 562.915 360.729 561.501C361.041 561.048 361.016 560.521 360.8 560.066C360.584 559.612 360.112 559.253 359.594 559.113C357.821 558.709 356.379 557.576 355.676 556.098C354.406 553.426 355.806 550.352 358.808 549.222C361.745 548.115 365.145 549.248 366.479 551.896C366.884 552.748 367.948 553.085 368.906 552.724L397.709 541.876C398.667 541.515 399.045 540.569 398.731 539.749C397.552 537.11 398.915 534.117 401.917 532.986C404.918 531.856 408.372 533.102 409.642 535.773C410.345 537.251 410.254 538.961 409.345 540.376C409.033 540.828 409.058 541.355 409.274 541.81C409.362 542.313 409.834 542.672 410.352 542.811Z" fill="#0277BD"/>
<path id="Vector_18" d="M379.384 539.127C380.342 538.766 380.785 537.796 380.379 536.943L378.461 532.907C378.055 532.054 376.965 531.661 376.007 532.021C375.049 532.382 374.607 533.353 375.012 534.206L376.93 538.242C377.336 539.094 378.427 539.488 379.384 539.127Z" fill="#0277BD"/>
<path id="Vector_19" d="M386.238 538.02C386.548 538.038 386.766 538.022 387.022 537.926C387.66 537.685 388.137 537.104 388.149 536.496L388.336 532.136C388.368 531.253 387.552 530.488 386.533 530.403C385.54 530.374 384.681 531.1 384.585 532.007L384.398 536.367C384.366 537.251 385.182 538.016 386.238 538.02Z" fill="#0277BD"/>
<path id="Vector_20" d="M371.134 542.838C371.723 543.286 372.433 543.354 373.072 543.113C373.327 543.017 373.556 542.864 373.693 542.678C374.361 542.024 374.312 540.971 373.551 540.319L369.905 537.403C369.171 536.808 367.987 536.852 367.255 537.53C366.587 538.183 366.636 539.237 367.397 539.889L371.134 542.838Z" fill="#0277BD"/>
<path id="Vector_21" d="M390.626 562.774C389.668 563.135 389.226 564.106 389.631 564.959L391.55 568.995C391.955 569.847 393.046 570.241 394.004 569.88C394.962 569.519 395.404 568.549 394.999 567.696L393.08 563.66C392.675 562.807 391.584 562.414 390.626 562.774Z" fill="#0277BD"/>
<path id="Vector_22" d="M383.773 563.882C382.78 563.853 381.92 564.579 381.825 565.487L381.638 569.846C381.606 570.73 382.422 571.495 383.441 571.58C383.751 571.597 383.969 571.582 384.225 571.486C384.864 571.245 385.34 570.664 385.352 570.056L385.539 565.696C385.644 564.651 384.829 563.886 383.773 563.882Z" fill="#0277BD"/>
<path id="Vector_23" d="M398.877 559.064C398.143 558.469 396.959 558.513 396.227 559.191C395.558 559.844 395.608 560.898 396.369 561.55L400.015 564.466C400.604 564.914 401.314 564.982 401.953 564.742C402.208 564.645 402.437 564.492 402.574 564.307C403.242 563.653 403.193 562.599 402.432 561.947L398.877 559.064Z" fill="#0277BD"/>
</g>
</g>
</g>
<g id="paw">
<path id="Vector_24" d="M871.218 125.526C879.649 132.211 888.922 118.006 887.236 109.65C892.294 94.6085 875.434 88.7591 869.532 102.965C861.945 108.814 861.102 125.526 871.218 125.526ZM872.062 123.019C862.788 123.855 866.16 108.814 871.218 104.636V103.8C876.277 91.266 888.922 96.2797 883.864 108.814V109.65C885.55 116.334 878.806 129.704 871.218 123.019H872.062Z" fill="#0277BD"/>
<path id="Vector_25" d="M843.399 115.498C851.829 122.183 861.102 107.978 859.416 99.6218C864.474 84.5807 847.614 78.7314 841.713 93.7725C834.125 99.6218 833.282 116.334 843.399 116.334V115.498ZM844.242 112.992C834.968 113.827 838.341 98.7862 843.399 94.6081V93.7725C848.457 81.2383 861.102 86.2519 856.044 98.7862V99.6218C857.73 106.307 850.986 119.677 843.399 112.992H844.242Z" fill="#0277BD"/>
<path id="Vector_26" d="M885.55 153.937C893.137 158.951 902.41 151.43 899.038 143.074C902.41 132.211 886.393 126.362 881.335 137.225C873.747 141.403 876.276 153.102 884.707 153.937H885.55ZM886.393 151.43H885.55C878.806 150.595 877.119 141.403 883.021 138.896L883.864 138.06C887.236 129.704 899.881 134.718 896.509 143.074V143.91C899.038 149.759 892.294 156.444 886.393 152.266V151.43Z" fill="#0277BD"/>
<path id="Vector_27" d="M814.736 128.869C822.323 133.882 831.597 126.362 828.225 118.006C831.597 107.143 815.579 101.293 810.521 112.156C802.934 116.335 805.463 128.033 813.893 128.869H814.736ZM815.579 126.362H814.736C807.992 125.526 806.306 116.335 812.207 113.828L813.05 112.992C816.422 104.636 829.068 109.65 825.696 118.006V118.841C828.225 124.691 821.48 131.376 815.579 127.198V126.362Z" fill="#0277BD"/>
<path id="Vector_28" d="M872.061 151.43C880.492 125.526 836.654 109.649 826.538 134.717C800.405 148.923 818.108 166.471 837.498 173.991C856.887 180.676 883.021 179.005 872.061 151.43ZM869.532 151.43V152.265C879.649 177.334 856.044 179.005 838.341 172.32C820.637 165.635 802.934 150.594 827.381 137.224L828.224 136.389C837.498 112.991 877.12 128.032 869.532 151.43Z" fill="#0277BD"/>
</g>
</g>
</svg>
