<svg width="435" height="305" viewBox="0 0 435 305" fill="none" xmlns="http://www.w3.org/2000/svg">
<path fill-rule="evenodd" clip-rule="evenodd" d="M300.439 66.9408C327.804 78.7584 362.174 83.8531 374.277 111.062C386.599 138.764 370.276 169.182 358.286 196.991C346.214 224.989 334.286 255.456 306.541 268.163C277.676 281.383 243.089 277.5 215.008 262.611C188.705 248.665 175.864 220.571 164.751 192.984C153.509 165.073 142.22 135.379 152.357 107.081C163.04 77.2615 187.628 51.9734 218.238 43.676C246.788 35.937 273.261 55.2037 300.439 66.9408Z" fill="#00B0FF"/>
<path d="M151.425 231.956C151.29 226.951 145.736 222.36 135.709 218.942C136.394 217.568 136.761 216.078 136.761 214.551C136.761 208.63 131.434 203.816 124.888 203.816C123.413 203.816 121.974 204.063 120.598 204.551C118.394 202.114 114.755 200.627 110.886 200.627C109.132 200.627 107.39 200.932 105.805 201.514C103.049 199.274 99.2857 198 95.3631 198C90.0756 198 85.2762 200.247 82.6486 203.908C76.4326 203.241 70.8738 206.017 68.7524 210.384C63.5405 210.475 59.2613 213.991 58.6068 218.507C47.7439 221.969 41.7138 226.722 41.5726 231.954L35.0336 257.323L35 257.587C35 269.27 62.0134 278.42 96.5 278.42C130.985 278.42 158 269.268 158 257.587L151.425 231.956ZM68.9594 212.527C69.0475 212.527 69.137 212.532 69.2251 212.538L70.1858 212.582L70.4641 211.859C71.7982 208.386 76.1026 205.961 80.9299 205.961C81.6096 205.961 82.3102 206.015 83.015 206.117L83.7156 206.218L84.0904 205.624C86.2216 202.244 90.5399 200.144 95.3617 200.144C99.0046 200.144 102.471 201.384 104.867 203.545L105.383 204.009L106.022 203.736C107.503 203.104 109.182 202.77 110.884 202.77C114.415 202.77 117.676 204.189 119.395 206.473L119.903 207.151L120.687 206.817C122.02 206.248 123.432 205.959 124.888 205.959C130.244 205.959 134.597 209.814 134.597 214.551C134.597 216.104 134.105 217.606 133.21 218.932L133.207 218.935C133.204 218.938 133.202 218.942 133.199 218.946C133.13 219.046 133.079 219.151 133.007 219.25L132.956 219.319L131.912 220.701L131.932 220.702L133.732 220.946C137.962 221.52 141.033 223.524 141.033 225.712C141.033 227.027 139.921 228.038 139.047 228.63C138.907 228.724 138.774 228.81 138.651 228.883L136.898 229.927L138.755 230.774C140.655 231.64 141.789 233.043 141.789 234.529C141.789 236.744 137.422 239.087 133.295 239.087H133.118L132.949 239.143C131.066 239.776 129.117 240.33 127.128 240.846C118.68 243.027 109.307 244.152 99.1346 244.152C81.734 244.152 66.8184 240.871 61.7407 239.612C60.5702 239.322 59.9228 239.141 59.8906 239.131L59.5913 239.089C54.9681 239.089 51.2092 235.782 51.2092 231.718C51.2092 227.654 54.9681 224.348 59.5913 224.348C59.8808 224.348 60.1675 224.36 60.4472 224.387L62.4637 224.561L61.489 222.802C60.9464 221.822 60.6709 220.781 60.6709 219.711C60.6709 219.647 60.6765 219.586 60.6807 219.524L60.7143 218.97C61.145 215.354 64.6788 212.527 68.9594 212.527ZM58.5775 220.766C58.5831 220.81 58.5943 220.856 58.6012 220.902C58.611 220.973 58.6264 221.042 58.6376 221.113C58.7005 221.483 58.783 221.849 58.8963 222.209C58.8977 222.213 58.8977 222.219 58.8991 222.223C53.4061 222.546 49.0472 226.681 49.0472 231.718C49.0472 236.917 53.6956 241.159 59.4403 241.231C59.7032 241.303 60.3143 241.467 61.2191 241.691C66.4087 242.978 81.5159 246.293 99.136 246.293C99.1388 246.293 99.1388 246.293 99.1416 246.293C111.867 246.293 123.417 244.59 133.48 241.231C138.463 241.163 143.954 238.32 143.954 234.532C143.954 234.066 143.891 233.61 143.768 233.166C143.402 231.837 142.504 230.631 141.181 229.698C142.493 228.542 143.196 227.167 143.196 225.713C143.196 225.609 143.182 225.507 143.174 225.403C143.168 225.315 143.168 225.229 143.157 225.146C143.143 225.045 143.119 224.947 143.1 224.848C143.08 224.754 143.065 224.661 143.04 224.567C143.034 224.545 143.031 224.522 143.026 224.499C147.074 226.873 149.278 229.507 149.278 232.141C149.278 240.132 128.069 248.686 96.4986 248.686C64.9277 248.686 43.7206 240.132 43.7206 232.141C43.7206 228.002 49.1129 223.89 58.5775 220.766ZM96.4986 276.28C64.4718 276.28 37.3927 267.792 37.162 257.715L42.7389 236.081C47.9201 244.606 69.6754 250.83 96.4986 250.83C123.319 250.83 145.077 244.606 150.256 236.079L155.835 257.714C155.604 267.792 128.525 276.28 96.4986 276.28Z" fill="#0277BD"/>
<path d="M115.434 258.811C115.434 255.977 113.11 253.676 110.25 253.676C107.483 253.676 105.213 255.84 105.077 258.552H87.92C87.7829 255.84 85.5133 253.676 82.7444 253.676C79.8874 253.676 77.5632 255.977 77.5632 258.811C77.5632 260.465 78.3533 261.936 79.5798 262.876C78.3533 263.815 77.5632 265.287 77.5632 266.94C77.5632 269.774 79.8874 272.078 82.7444 272.078C85.5133 272.078 87.7843 269.912 87.92 267.199H105.077C105.214 269.912 107.484 272.078 110.25 272.078C113.11 272.078 115.434 269.774 115.434 266.94C115.434 265.289 114.643 263.815 113.419 262.876C114.643 261.936 115.434 260.466 115.434 258.811ZM113.273 266.94C113.273 268.591 111.916 269.934 110.25 269.934C108.587 269.934 107.232 268.591 107.232 266.94C107.232 266.742 107.255 266.542 107.295 266.344L107.558 265.057H85.4392L85.7021 266.344C85.7426 266.542 85.7636 266.742 85.7636 266.94C85.7636 268.591 84.4085 269.934 82.743 269.934C81.0789 269.934 79.7238 268.591 79.7238 266.94C79.7238 265.292 81.0789 263.948 82.743 263.948V261.804C81.0789 261.804 79.7238 260.461 79.7238 258.813C79.7238 257.162 81.0789 255.819 82.743 255.819C84.4085 255.819 85.7636 257.162 85.7636 258.813C85.7636 259.014 85.7426 259.213 85.7021 259.412L85.4392 260.698H107.557L107.294 259.412C107.253 259.211 107.231 259.011 107.231 258.813C107.231 257.162 108.586 255.819 110.249 255.819C111.914 255.819 113.272 257.162 113.272 258.813C113.272 260.461 111.914 261.804 110.249 261.804V263.948C111.916 263.947 113.273 265.29 113.273 266.94Z" fill="#0277BD"/>
</svg>
